Coordinates
version=1
nRows=27
nColumns=38
inDegrees=no

Units are S.I. units (second, meters, Newtons, ...)
If the header above contains a line with 'inDegrees', this indicates whether rotational values are in degrees (yes) or radians (no).

endheader
time	pelvis_tilt	pelvis_list	pelvis_rotation	pelvis_tx	pelvis_ty	pelvis_tz	hip_flexion_r	hip_adduction_r	hip_rotation_r	knee_angle_r	ankle_angle_r	subtalar_angle_r	mtp_angle_r	hip_flexion_l	hip_adduction_l	hip_rotation_l	knee_angle_l	ankle_angle_l	subtalar_angle_l	mtp_angle_l	lumbar_extension	lumbar_bending	lumbar_rotation	arm_flex_r	arm_add_r	arm_rot_r	elbow_flex_r	pro_sup_r	wrist_flex_r	wrist_dev_r	arm_flex_l	arm_add_l	arm_rot_l	elbow_flex_l	pro_sup_l	wrist_flex_l	wrist_dev_l
0.71	-0.317195	1.38435	-1.09298	0.800541	1.02667	0.928051	0.117774	0.00769309	-0.20515	0	-0.265714	0	0	-0.465618	-0.146318	-0.380464	0.347155	-0.0638547	0	0	-0.338222	0.0710366	-0.24506	-0.059385	-0.438993	0.516101	0.738881	0.99864	0	0	-0.0723111	-0.416923	-0.107789	1.14993	1.56404	0	0
0.72	-0.324498	1.37555	-1.08267	0.799947	1.015	0.928185	0.103015	0.0208399	-0.199799	0	-0.294948	0	0	-0.477555	-0.159741	-0.387272	0.363402	-0.0842647	0	0	-0.345306	0.0791287	-0.253983	-0.0433097	-0.447742	0.562139	0.738128	0.953855	0	0	-0.0860696	-0.410504	-0.122061	1.15389	1.56719	0	0
0.73	-0.339257	1.37148	-1.06514	0.799298	1.00286	0.928103	0.0935268	0.0325099	-0.194207	0	-0.306365	0	0	-0.483615	-0.172011	-0.391127	0.380467	-0.0970447	0	0	-0.346563	0.0862123	-0.256709	-0.0452711	-0.443113	0.554842	0.735328	0.964836	0	0	-0.0944566	-0.405687	-0.124207	1.15265	1.5685	0	0
0.74	-0.354001	1.36823	-1.0474	0.798641	0.990471	0.928086	0.0858779	0.0425741	-0.188947	0	-0.312319	0	0	-0.487419	-0.183995	-0.393278	0.399775	-0.104115	0	0	-0.346052	0.093295	-0.256924	-0.0529332	-0.437279	0.536507	0.734252	0.98204	0	0	-0.100273	-0.402946	-0.118192	1.14789	1.56679	0	0
0.75	-0.36441	1.36478	-1.03364	0.79802	0.977858	0.928208	0.0771984	0.0511734	-0.185469	0	-0.343717	0	0	-0.489926	-0.196119	-0.395838	0.422253	-0.121772	0	0	-0.345897	0.0999848	-0.261378	-0.0524775	-0.437701	0.544759	0.733638	0.975264	0	0	-0.11167	-0.397413	-0.121377	1.14551	1.56999	0	0
0.76	-0.372303	1.36317	-1.02229	0.797364	0.964948	0.928389	0.0679169	0.0584801	-0.183148	0	-0.395219	0	0	-0.489205	-0.207443	-0.398159	0.447139	-0.14872	0	0	-0.345973	0.105157	-0.247277	-0.108398	-0.38531	0.350191	0.735376	1.17793	0	0	-0.103716	-0.405957	-0.0796576	1.13513	1.54502	0	0
0.77	-0.371932	1.35828	-1.01938	0.796648	0.952042	0.928847	0.053969	0.0698339	-0.191747	0	-0.454995	0	0	-0.490866	-0.219331	-0.401018	0.474856	-0.175532	0	0	-0.344364	0.11047	-0.271879	-0.0463121	-0.446061	0.589534	0.734334	0.928292	0	0	-0.137993	-0.387941	-0.125259	1.13922	1.5708	0	0
0.78	-0.371968	1.35363	-1.01751	0.795993	0.939185	0.92961	0.038984	0.0775518	-0.186513	0	-0.475857	0	0	-0.489465	-0.230433	-0.403411	0.507044	-0.206001	0	0	-0.346279	0.115699	-0.272731	-0.0538056	-0.442416	0.575001	0.735588	0.940877	0	0	-0.148395	-0.383873	-0.122334	1.13451	1.5708	0	0
0.79	-0.372877	1.34708	-1.01622	0.795251	0.926555	0.930745	0.0237708	0.0859843	-0.177592	0	-0.48383	0	0	-0.486246	-0.242774	-0.405908	0.545046	-0.239753	0	0	-0.350538	0.121929	-0.2717	-0.0602771	-0.439813	0.561744	0.737799	0.950996	0	0	-0.157986	-0.379634	-0.118944	1.12913	1.5708	0	0
0.8	-0.378879	1.3393	-1.0112	0.794321	0.914238	0.932171	0.01046	0.0955913	-0.166659	0	-0.480268	0	0	-0.479628	-0.257727	-0.407982	0.58954	-0.27452	0	0	-0.356135	0.12958	-0.26905	-0.0654658	-0.437776	0.549633	0.740446	0.961003	0	0	-0.166784	-0.37508	-0.115662	1.12292	1.5708	0	0
0.81	-0.391297	1.331	-1.00084	0.79313	0.902238	0.933755	-0.000766539	0.106551	-0.157268	0	-0.470348	0	0	-0.468524	-0.275069	-0.406651	0.640502	-0.3011	0	0	-0.362278	0.138317	-0.265484	-0.0688145	-0.435676	0.539842	0.742477	0.971054	0	0	-0.175718	-0.370328	-0.113491	1.11698	1.5708	0	0
0.82	-0.371684	1.32626	-1.02176	0.791072	0.89116	0.936907	-0.00467912	0.108009	-0.168889	0.0325014	-0.449444	0	0	-0.468338	-0.235474	-0.26939	0.632462	-0.299197	0	0	-0.370906	0.136651	-0.262801	-0.0655469	-0.421385	0.527894	0.727063	0.986372	0	0	-0.178382	-0.3697	-0.107691	1.10295	1.5708	0	0
0.83	-0.391739	1.32163	-1.00375	0.789589	0.87956	0.93823	-0.0111873	0.118363	-0.174578	0.0476031	-0.449902	0	0	-0.443168	-0.250369	-0.25651	0.697158	-0.320691	0	0	-0.372575	0.144633	-0.260414	-0.0640916	-0.422553	0.534355	0.728168	0.978191	0	0	-0.188803	-0.365544	-0.106463	1.09666	1.5708	0	0
0.84	-0.406575	1.31779	-0.991189	0.788141	0.868203	0.939321	-0.0168012	0.126478	-0.18361	0.0655331	-0.434023	0	0	-0.41519	-0.263643	-0.244129	0.76448	-0.342524	0	0	-0.374097	0.150602	-0.257926	-0.0626072	-0.424831	0.543464	0.730531	0.968372	0	0	-0.19972	-0.363231	-0.103356	1.09166	1.5708	0	0
0.85	-0.42219	1.31727	-0.978689	0.786632	0.856814	0.940064	-0.0173507	0.131982	-0.196882	0.0878234	-0.404069	0	0	-0.382627	-0.275053	-0.233433	0.833824	-0.357196	0	0	-0.374929	0.154125	-0.244359	-0.103553	-0.381358	0.385293	0.730662	1.14129	0	0	-0.20115	-0.364032	-0.0870113	1.08535	1.5708	0	0
0.86	-0.427738	1.31439	-0.976827	0.785169	0.845693	0.940789	-0.0229258	0.134309	-0.206642	0.115447	-0.367226	0	0	-0.353491	-0.28535	-0.225688	0.903633	-0.355749	0	0	-0.371642	0.157647	-0.252136	-0.0552228	-0.440108	0.590816	0.740548	0.910345	0	0	-0.218888	-0.358339	-0.0950791	1.07946	1.5708	0	0
0.87	-0.429065	1.31288	-0.978636	0.783619	0.834408	0.94155	-0.0402181	0.140219	-0.20716	0.110949	-0.355726	0	0	-0.323711	-0.294531	-0.219249	0.971049	-0.354566	0	0	-0.371741	0.158251	-0.248018	-0.0603703	-0.439618	0.584178	0.745181	0.915391	0	0	-0.227038	-0.356495	-0.0904668	1.07501	1.5708	0	0
0.88	-0.424504	1.31164	-0.986362	0.7821	0.823429	0.942457	-0.0587488	0.144612	-0.207501	0.104094	-0.345609	0	0	-0.294121	-0.301732	-0.213255	1.03547	-0.357709	0	0	-0.373134	0.156624	-0.242903	-0.0655007	-0.438431	0.576428	0.749402	0.919989	0	0	-0.234648	-0.35715	-0.0835343	1.07094	1.5708	0	0
0.89	-0.45039	1.30489	-0.968619	0.780853	0.811511	0.94216	-0.0757158	0.157905	-0.21391	0.102664	-0.331673	0	0	-0.26531	-0.37823	-0.337101	1.12601	-0.391329	0	0	-0.373863	0.164149	-0.232479	-0.0782612	-0.446895	0.56365	0.769576	0.927307	0	0	-0.249338	-0.354349	-0.0803111	1.07609	1.5708	0	0
0.9	-0.399427	1.35039	-1.02712	0.777297	0.800977	0.939734	-0.0314381	0.12902	-0.188023	0.125925	-0.313243	0	0	-0.197582	-0.284337	-0.200854	1.1662	-0.305628	0	0	-0.335392	0.119585	-0.233483	-0.08216	-0.42679	0.556523	0.750103	0.936835	0	0	-0.260595	-0.36436	-0.0721225	1.06845	1.5708	0	0
0.91	-0.440525	1.31229	-0.989122	0.776815	0.790751	0.944499	-0.102518	0.155005	-0.322246	0.0832363	-0.347071	0	0	-0.19856	-0.380198	-0.317556	1.22666	-0.325147	0	0	-0.369456	0.150317	-0.220571	-0.0804916	-0.433078	0.548191	0.759211	0.945396	0	0	-0.260258	-0.356722	-0.0690113	1.0636	1.5708	0	0
0.92	-0.406144	1.30609	-1.02178	0.776639	0.780698	0.94696	-0.116275	0.155089	-0.239763	0.116065	-0.306038	0	0	-0.177964	-0.375163	-0.303149	1.26411	-0.284764	0	0	-0.380572	0.146634	-0.221286	-0.0773847	-0.435774	0.556393	0.762305	0.931863	0	0	-0.263907	-0.35399	-0.0679733	1.05867	1.5708	0	0
0.93	-0.360599	1.31505	-1.06471	0.775398	0.772098	0.949528	-0.124412	0.14245	-0.239636	0.11827	-0.292107	0	0	-0.141358	-0.300596	-0.178503	1.28267	-0.204475	0	0	-0.379931	0.130086	-0.226326	-0.0630002	-0.424515	0.572063	0.740858	0.921597	0	0	-0.262025	-0.355196	-0.0656868	1.04479	1.5708	0	0
0.94	-0.354867	1.30837	-1.07835	0.774419	0.76106	0.950019	-0.115533	0.131157	-0.295421	0.204446	-0.234003	0	0	-0.12072	-0.357829	-0.280837	1.33094	-0.20661	0	0	-0.385409	0.128933	-0.218708	-0.0678584	-0.435791	0.579101	0.759565	0.906582	0	0	-0.276076	-0.352855	-0.0677213	1.05175	1.5708	0	0
0.95	-0.337286	1.31023	-1.09834	0.773143	0.750992	0.951565	-0.135263	0.131803	-0.284602	0.190563	-0.222963	0	0	-0.0906144	-0.35196	-0.273256	1.35494	-0.184981	0	0	-0.38963	0.120903	-0.203241	-0.11832	-0.376381	0.381033	0.753757	1.12303	0	0	-0.270807	-0.357396	-0.0518738	1.04745	1.5708	0	0
0.96	-0.293315	1.31811	-1.13944	0.772042	0.742438	0.953663	-0.150471	0.123528	-0.274796	0.173017	-0.227377	0	0	-0.0548046	-0.279886	-0.162086	1.35919	-0.13877	0	0	-0.385075	0.105956	-0.220059	-0.0609348	-0.415056	0.568752	0.736143	0.924349	0	0	-0.280087	-0.355456	-0.0638356	1.03729	1.5708	0	0
0.97	-0.295132	1.30873	-1.14789	0.77056	0.731252	0.954458	-0.184021	0.133355	-0.256921	0.148852	-0.228129	0	0	-0.0392713	-0.34094	-0.266731	1.38477	-0.158383	0	0	-0.392961	0.105774	-0.208726	-0.0705398	-0.41921	0.556531	0.751062	0.935009	0	0	-0.293533	-0.354258	-0.0660135	1.045	1.5708	0	0
